<?xml version="1.0" standalone="yes"?><svg xmlns="http://www.w3.org/2000/svg" version="1.1" width="222" height="222" viewBox="0 0 222 222" shape-rendering="crispEdges"><rect x="0" y="0" width="222" height="222" fill="#ffffff"/><path fill="#000000" d="M24 24h6v6H24V24M30 24h6v6H30V24M36 24h6v6H36V24M42 24h6v6H42V24M48 24h6v6H48V24M54 24h6v6H54V24M60 24h6v6H60V24M72 24h6v6H72V24M78 24h6v6H78V24M96 24h6v6H96V24M114 24h6v6H114V24M120 24h6v6H120V24M138 24h6v6H138V24M144 24h6v6H144V24M156 24h6v6H156V24M162 24h6v6H162V24M168 24h6v6H168V24M174 24h6v6H174V24M180 24h6v6H180V24M186 24h6v6H186V24M192 24h6v6H192V24M24 30h6v6H24V30M60 30h6v6H60V30M72 30h6v6H72V30M84 30h6v6H84V30M96 30h6v6H96V30M108 30h6v6H108V30M114 30h6v6H114V30M144 30h6v6H144V30M156 30h6v6H156V30M192 30h6v6H192V30M24 36h6v6H24V36M36 36h6v6H36V36M42 36h6v6H42V36M48 36h6v6H48V36M60 36h6v6H60V36M84 36h6v6H84V36M96 36h6v6H96V36M102 36h6v6H102V36M108 36h6v6H108V36M114 36h6v6H114V36M132 36h6v6H132V36M138 36h6v6H138V36M144 36h6v6H144V36M156 36h6v6H156V36M168 36h6v6H168V36M174 36h6v6H174V36M180 36h6v6H180V36M192 36h6v6H192V36M24 42h6v6H24V42M36 42h6v6H36V42M42 42h6v6H42V42M48 42h6v6H48V42M60 42h6v6H60V42M72 42h6v6H72V42M78 42h6v6H78V42M90 42h6v6H90V42M96 42h6v6H96V42M120 42h6v6H120V42M126 42h6v6H126V42M156 42h6v6H156V42M168 42h6v6H168V42M174 42h6v6H174V42M180 42h6v6H180V42M192 42h6v6H192V42M24 48h6v6H24V48M36 48h6v6H36V48M42 48h6v6H42V48M48 48h6v6H48V48M60 48h6v6H60V48M84 48h6v6H84V48M102 48h6v6H102V48M126 48h6v6H126V48M138 48h6v6H138V48M156 48h6v6H156V48M168 48h6v6H168V48M174 48h6v6H174V48M180 48h6v6H180V48M192 48h6v6H192V48M24 54h6v6H24V54M60 54h6v6H60V54M78 54h6v6H78V54M84 54h6v6H84V54M108 54h6v6H108V54M126 54h6v6H126V54M138 54h6v6H138V54M156 54h6v6H156V54M192 54h6v6H192V54M24 60h6v6H24V60M30 60h6v6H30V60M36 60h6v6H36V60M42 60h6v6H42V60M48 60h6v6H48V60M54 60h6v6H54V60M60 60h6v6H60V60M72 60h6v6H72V60M84 60h6v6H84V60M96 60h6v6H96V60M108 60h6v6H108V60M120 60h6v6H120V60M132 60h6v6H132V60M144 60h6v6H144V60M156 60h6v6H156V60M162 60h6v6H162V60M168 60h6v6H168V60M174 60h6v6H174V60M180 60h6v6H180V60M186 60h6v6H186V60M192 60h6v6H192V60M72 66h6v6H72V66M90 66h6v6H90V66M96 66h6v6H96V66M102 66h6v6H102V66M108 66h6v6H108V66M126 66h6v6H126V66M132 66h6v6H132V66M138 66h6v6H138V66M24 72h6v6H24V72M36 72h6v6H36V72M42 72h6v6H42V72M54 72h6v6H54V72M60 72h6v6H60V72M66 72h6v6H66V72M90 72h6v6H90V72M96 72h6v6H96V72M102 72h6v6H102V72M108 72h6v6H108V72M120 72h6v6H120V72M126 72h6v6H126V72M132 72h6v6H132V72M156 72h6v6H156V72M174 72h6v6H174V72M186 72h6v6H186V72M192 72h6v6H192V72M24 78h6v6H24V78M30 78h6v6H30V78M36 78h6v6H36V78M42 78h6v6H42V78M66 78h6v6H66V78M72 78h6v6H72V78M84 78h6v6H84V78M90 78h6v6H90V78M96 78h6v6H96V78M114 78h6v6H114V78M120 78h6v6H120V78M132 78h6v6H132V78M138 78h6v6H138V78M144 78h6v6H144V78M162 78h6v6H162V78M168 78h6v6H168V78M192 78h6v6H192V78M30 84h6v6H30V84M36 84h6v6H36V84M60 84h6v6H60V84M66 84h6v6H66V84M72 84h6v6H72V84M78 84h6v6H78V84M96 84h6v6H96V84M108 84h6v6H108V84M114 84h6v6H114V84M126 84h6v6H126V84M162 84h6v6H162V84M168 84h6v6H168V84M180 84h6v6H180V84M186 84h6v6H186V84M42 90h6v6H42V90M54 90h6v6H54V90M66 90h6v6H66V90M72 90h6v6H72V90M84 90h6v6H84V90M102 90h6v6H102V90M108 90h6v6H108V90M114 90h6v6H114V90M132 90h6v6H132V90M138 90h6v6H138V90M150 90h6v6H150V90M192 90h6v6H192V90M30 96h6v6H30V96M54 96h6v6H54V96M60 96h6v6H60V96M72 96h6v6H72V96M78 96h6v6H78V96M90 96h6v6H90V96M96 96h6v6H96V96M120 96h6v6H120V96M126 96h6v6H126V96M162 96h6v6H162V96M174 96h6v6H174V96M180 96h6v6H180V96M24 102h6v6H24V102M30 102h6v6H30V102M36 102h6v6H36V102M54 102h6v6H54V102M66 102h6v6H66V102M90 102h6v6H90V102M96 102h6v6H96V102M102 102h6v6H102V102M126 102h6v6H126V102M132 102h6v6H132V102M138 102h6v6H138V102M150 102h6v6H150V102M156 102h6v6H156V102M180 102h6v6H180V102M186 102h6v6H186V102M192 102h6v6H192V102M30 108h6v6H30V108M42 108h6v6H42V108M54 108h6v6H54V108M60 108h6v6H60V108M66 108h6v6H66V108M72 108h6v6H72V108M96 108h6v6H96V108M108 108h6v6H108V108M138 108h6v6H138V108M150 108h6v6H150V108M156 108h6v6H156V108M162 108h6v6H162V108M180 108h6v6H180V108M186 108h6v6H186V108M192 108h6v6H192V108M24 114h6v6H24V114M36 114h6v6H36V114M42 114h6v6H42V114M72 114h6v6H72V114M102 114h6v6H102V114M114 114h6v6H114V114M132 114h6v6H132V114M144 114h6v6H144V114M150 114h6v6H150V114M186 114h6v6H186V114M24 120h6v6H24V120M36 120h6v6H36V120M60 120h6v6H60V120M78 120h6v6H78V120M84 120h6v6H84V120M90 120h6v6H90V120M132 120h6v6H132V120M138 120h6v6H138V120M144 120h6v6H144V120M150 120h6v6H150V120M162 120h6v6H162V120M168 120h6v6H168V120M174 120h6v6H174V120M186 120h6v6H186V120M36 126h6v6H36V126M42 126h6v6H42V126M48 126h6v6H48V126M66 126h6v6H66V126M72 126h6v6H72V126M96 126h6v6H96V126M102 126h6v6H102V126M144 126h6v6H144V126M162 126h6v6H162V126M174 126h6v6H174V126M180 126h6v6H180V126M186 126h6v6H186V126M24 132h6v6H24V132M42 132h6v6H42V132M54 132h6v6H54V132M60 132h6v6H60V132M78 132h6v6H78V132M84 132h6v6H84V132M96 132h6v6H96V132M150 132h6v6H150V132M162 132h6v6H162V132M168 132h6v6H168V132M180 132h6v6H180V132M36 138h6v6H36V138M66 138h6v6H66V138M84 138h6v6H84V138M96 138h6v6H96V138M114 138h6v6H114V138M120 138h6v6H120V138M126 138h6v6H126V138M132 138h6v6H132V138M138 138h6v6H138V138M150 138h6v6H150V138M162 138h6v6H162V138M180 138h6v6H180V138M30 144h6v6H30V144M36 144h6v6H36V144M48 144h6v6H48V144M54 144h6v6H54V144M60 144h6v6H60V144M66 144h6v6H66V144M72 144h6v6H72V144M90 144h6v6H90V144M96 144h6v6H96V144M102 144h6v6H102V144M114 144h6v6H114V144M120 144h6v6H120V144M126 144h6v6H126V144M144 144h6v6H144V144M150 144h6v6H150V144M156 144h6v6H156V144M162 144h6v6H162V144M168 144h6v6H168V144M174 144h6v6H174V144M180 144h6v6H180V144M72 150h6v6H72V150M84 150h6v6H84V150M96 150h6v6H96V150M102 150h6v6H102V150M108 150h6v6H108V150M114 150h6v6H114V150M144 150h6v6H144V150M168 150h6v6H168V150M174 150h6v6H174V150M180 150h6v6H180V150M186 150h6v6H186V150M192 150h6v6H192V150M24 156h6v6H24V156M30 156h6v6H30V156M36 156h6v6H36V156M42 156h6v6H42V156M48 156h6v6H48V156M54 156h6v6H54V156M60 156h6v6H60V156M72 156h6v6H72V156M78 156h6v6H78V156M90 156h6v6H90V156M102 156h6v6H102V156M120 156h6v6H120V156M138 156h6v6H138V156M144 156h6v6H144V156M156 156h6v6H156V156M168 156h6v6H168V156M174 156h6v6H174V156M186 156h6v6H186V156M24 162h6v6H24V162M60 162h6v6H60V162M72 162h6v6H72V162M78 162h6v6H78V162M84 162h6v6H84V162M114 162h6v6H114V162M138 162h6v6H138V162M144 162h6v6H144V162M168 162h6v6H168V162M174 162h6v6H174V162M186 162h6v6H186V162M24 168h6v6H24V168M36 168h6v6H36V168M42 168h6v6H42V168M48 168h6v6H48V168M60 168h6v6H60V168M78 168h6v6H78V168M84 168h6v6H84V168M90 168h6v6H90V168M108 168h6v6H108V168M126 168h6v6H126V168M132 168h6v6H132V168M144 168h6v6H144V168M150 168h6v6H150V168M156 168h6v6H156V168M162 168h6v6H162V168M168 168h6v6H168V168M180 168h6v6H180V168M192 168h6v6H192V168M24 174h6v6H24V174M36 174h6v6H36V174M42 174h6v6H42V174M48 174h6v6H48V174M60 174h6v6H60V174M72 174h6v6H72V174M78 174h6v6H78V174M84 174h6v6H84V174M90 174h6v6H90V174M96 174h6v6H96V174M108 174h6v6H108V174M114 174h6v6H114V174M120 174h6v6H120V174M138 174h6v6H138V174M150 174h6v6H150V174M162 174h6v6H162V174M168 174h6v6H168V174M174 174h6v6H174V174M186 174h6v6H186V174M24 180h6v6H24V180M36 180h6v6H36V180M42 180h6v6H42V180M48 180h6v6H48V180M60 180h6v6H60V180M72 180h6v6H72V180M78 180h6v6H78V180M108 180h6v6H108V180M126 180h6v6H126V180M132 180h6v6H132V180M138 180h6v6H138V180M144 180h6v6H144V180M162 180h6v6H162V180M180 180h6v6H180V180M192 180h6v6H192V180M24 186h6v6H24V186M60 186h6v6H60V186M78 186h6v6H78V186M96 186h6v6H96V186M108 186h6v6H108V186M114 186h6v6H114V186M132 186h6v6H132V186M144 186h6v6H144V186M150 186h6v6H150V186M174 186h6v6H174V186M186 186h6v6H186V186M24 192h6v6H24V192M30 192h6v6H30V192M36 192h6v6H36V192M42 192h6v6H42V192M48 192h6v6H48V192M54 192h6v6H54V192M60 192h6v6H60V192M72 192h6v6H72V192M78 192h6v6H78V192M84 192h6v6H84V192M114 192h6v6H114V192M132 192h6v6H132V192M138 192h6v6H138V192M144 192h6v6H144V192M150 192h6v6H150V192M156 192h6v6H156V192M186 192h6v6H186V192"/></svg>