<?xml version="1.0" encoding="UTF-8"?>
<!DOCTYPE svg PUBLIC "-//W3C//DTD SVG 1.1//EN" "http://www.w3.org/Graphics/SVG/1.1/DTD/svg11.dtd">
<svg xmlns="http://www.w3.org/2000/svg" version="1.1" width="172px" height="172px" style="shape-rendering:geometricPrecision; text-rendering:geometricPrecision; image-rendering:optimizeQuality; fill-rule:evenodd; clip-rule:evenodd" xmlns:xlink="http://www.w3.org/1999/xlink">
<g><path style="opacity:0.982" fill="#5447fe" d="M 6.5,-0.5 C 51.8333,-0.5 97.1667,-0.5 142.5,-0.5C 144.923,1.75741 146.757,4.42408 148,7.5C 148.931,18.5728 148.597,29.5728 147,40.5C 141.49,46.0431 135.323,46.8764 128.5,43C 126.513,41.6811 125.346,39.8477 125,37.5C 124.501,32.8452 124.334,28.1785 124.5,23.5C 90.8333,23.5 57.1667,23.5 23.5,23.5C 23.5,49.5 23.5,75.5 23.5,101.5C 48.5,101.5 73.5,101.5 98.5,101.5C 98.5,109.5 98.5,117.5 98.5,125.5C 80.8302,125.333 63.1635,125.5 45.5,126C 37.973,133.527 30.473,141.027 23,148.5C 21.536,141.007 21.036,133.34 21.5,125.5C 16.0873,125.771 10.7539,125.271 5.5,124C 3.66667,122.833 2.16667,121.333 1,119.5C 0.333333,81.5 0.333333,43.5 1,5.5C 2.35968,2.97739 4.19301,0.977392 6.5,-0.5 Z"/></g>
<g><path style="opacity:0.985" fill="#5548fe" d="M 75.5,33.5 C 82.4284,32.296 87.595,34.6293 91,40.5C 91.6667,51.1667 91.6667,61.8333 91,72.5C 90.214,75.5827 88.3807,77.7494 85.5,79C 76.1352,81.9067 70.3019,78.74 68,69.5C 67.105,59.4394 67.4383,49.4394 69,39.5C 70.7438,36.9181 72.9105,34.9181 75.5,33.5 Z"/></g>
<g><path style="opacity:0.987" fill="#5547fe" d="M 43.5,44.5 C 49.4899,44.0988 53.9899,46.4321 57,51.5C 57.6667,62.5 57.6667,73.5 57,84.5C 52.7647,91.0229 46.9313,92.8562 39.5,90C 35.9663,87.4044 34.133,83.9044 34,79.5C 33.1759,69.7877 33.5093,60.121 35,50.5C 37.21,47.4323 40.0433,45.4323 43.5,44.5 Z"/></g>
<g><path style="opacity:0.987" fill="#5649fe" d="M 111.5,44.5 C 117.49,44.0988 121.99,46.4321 125,51.5C 125.667,62.1667 125.667,72.8333 125,83.5C 120.272,91.7948 113.772,93.4615 105.5,88.5C 103.297,86.7046 102.131,84.3712 102,81.5C 101.101,71.1066 101.434,60.7733 103,50.5C 105.21,47.4323 108.043,45.4323 111.5,44.5 Z"/></g>
<g><path style="opacity:0.984" fill="#e40e07" d="M 122.5,94.5 C 132.506,94.3335 142.506,94.5002 152.5,95C 158.413,95.6502 164.079,97.1502 169.5,99.5C 170.072,121.677 170.405,144.011 170.5,166.5C 159.868,169.951 148.868,171.285 137.5,170.5C 130.833,170.333 124.167,170.167 117.5,170C 113.038,169.245 108.872,167.745 105,165.5C 104.833,158.833 104.667,152.167 104.5,145.5C 104.52,138.428 105.187,131.595 106.5,125C 104.548,116.77 103.882,108.27 104.5,99.5C 110.525,97.5687 116.525,95.9021 122.5,94.5 Z M 153.5,120.5 C 156.167,120.5 158.833,120.5 161.5,120.5C 161.6,133.495 161.6,146.495 161.5,159.5C 158.833,159.5 156.167,159.5 153.5,159.5C 154.011,155.97 153.344,152.804 151.5,150C 153.459,140.428 154.126,130.595 153.5,120.5 Z M 113.5,120.5 C 122.016,119.885 130.349,120.718 138.5,123C 141.079,126.605 144.412,128.938 148.5,130C 147.552,130.483 146.552,130.649 145.5,130.5C 146.833,137.167 146.833,143.833 145.5,150.5C 146.552,150.351 147.552,150.517 148.5,151C 145.175,150.775 142.842,152.108 141.5,155C 139.044,156.711 136.377,158.044 133.5,159C 126.842,159.5 120.175,159.666 113.5,159.5C 113.318,146.349 113.318,133.349 113.5,120.5 Z"/></g>
<g><path style="opacity:0.986" fill="#e40f09" d="M 121.5,126.5 C 126.08,126.113 130.414,126.947 134.5,129C 131.833,129.333 129.167,129.667 126.5,130C 129.5,130.333 132.5,130.667 135.5,131C 139.5,137.333 139.5,143.667 135.5,150C 132.833,150.333 130.167,150.667 127.5,151C 129.256,151.202 130.922,151.702 132.5,152.5C 128.893,153.489 125.226,153.823 121.5,153.5C 121.36,151.876 122.027,150.71 123.5,150C 121.553,142.442 120.886,134.609 121.5,126.5 Z"/></g>
</svg>
