<?xml version="1.0" standalone="no"?>
<!DOCTYPE svg PUBLIC "-//W3C//DTD SVG 20010904//EN"
 "http://www.w3.org/TR/2001/REC-SVG-20010904/DTD/svg10.dtd">
<svg version="1.0" xmlns="http://www.w3.org/2000/svg"
 width="1000.000000pt" height="1000.000000pt" viewBox="0.5102448 0 999.5898 999.33777"
 preserveAspectRatio="xMidYMid meet">

<g transform="translate(0.000000,1000.000000) scale(0.100000,-0.100000)"
fill="#000000" stroke="none">
<path d="M3106 8768 c-2 -678 -7 -1258 -11 -1288 l-6 -55 53 -35 c91 -61 220
-173 320 -279 262 -278 430 -610 510 -1004 20 -99 23 -141 23 -367 -1 -240 -2
-263 -28 -385 -16 -71 -45 -182 -66 -245 -283 -846 -1093 -1406 -1981 -1366
-80 3 -163 9 -186 12 l-40 6 -89 -208 c-48 -115 -196 -460 -327 -768 -131
-307 -245 -586 -254 -620 -20 -72 -22 -247 -5 -321 41 -177 141 -324 281 -414
80 -52 148 -77 244 -90 53 -8 722 -11 2142 -11 l2064 0 2 1458 c3 1398 4 1458
22 1491 49 91 164 183 322 258 93 44 355 135 427 148 20 4 39 11 42 15 3 5
-42 118 -99 252 -182 428 -567 1329 -613 1438 -98 229 -186 526 -233 783 -55
307 -53 248 -57 1585 l-4 1242 -1224 0 -1224 0 -5 -1232z"/>
<path d="M7550 9989 c-412 -44 -759 -358 -856 -774 -29 -124 -25 -339 8 -465
76 -285 260 -511 523 -642 147 -74 273 -102 450 -102 269 1 493 93 688 283
130 126 215 270 269 457 20 70 23 100 22 259 0 166 -3 187 -28 269 -121 399
-445 669 -858 716 -92 11 -111 11 -218 -1z"/>
<path d="M1785 7729 c-351 -36 -718 -185 -1010 -408 -93 -70 -249 -226 -334
-332 -477 -591 -571 -1419 -240 -2108 266 -555 764 -951 1364 -1086 65 -14
121 -23 125 -18 4 4 85 190 180 413 95 223 198 466 230 540 32 74 162 380 290
680 128 300 279 654 335 786 57 133 120 286 140 340 85 226 157 503 195 754
20 127 20 133 3 146 -10 8 -83 47 -163 88 -343 174 -728 245 -1115 205z"/>
<path d="M7795 4394 c-310 -9 -700 -46 -950 -89 -657 -114 -874 -294 -552
-457 212 -107 612 -183 1207 -229 202 -16 927 -16 1140 -1 600 45 1039 131
1235 242 372 212 -146 438 -1177 514 -196 15 -698 26 -903 20z"/>
<path d="M6140 3305 c0 -555 -1 -547 60 -599 133 -111 409 -184 992 -261 l38
-5 2 287 3 288 320 0 320 0 3 -309 2 -309 318 6 c417 9 641 25 950 68 426 59
709 147 812 254 l35 36 3 520 c1 287 -1 519 -5 517 -5 -2 -44 -22 -88 -44
-536 -277 -2169 -352 -3193 -148 -245 49 -449 119 -544 186 l-28 19 0 -506z"/>
<path d="M6140 2103 c0 -572 -3 -549 77 -609 82 -62 280 -131 515 -177 110
-23 363 -60 461 -70 l37 -3 0 543 c0 456 -2 543 -14 543 -42 0 -343 45 -481
71 -251 49 -472 122 -565 189 l-30 21 0 -508z"/>
<path d="M9905 2555 c-294 -158 -1022 -265 -1813 -265 l-212 0 2 -542 3 -543
285 2 c897 6 1624 138 1800 328 l25 27 3 519 c1 285 -1 518 -5 518 -5 -1 -44
-21 -88 -44z"/>
<path d="M6140 905 c0 -555 -1 -547 60 -599 160 -134 606 -233 1300 -287 205
-17 928 -16 1145 0 702 52 1176 162 1315 306 l35 36 3 524 3 524 -58 -35 c-78
-46 -193 -90 -348 -130 -123 -32 -416 -85 -552 -99 l-63 -7 0 -254 0 -254
-875 0 -875 0 0 250 c0 138 -2 250 -5 250 -2 0 -75 9 -162 20 -403 52 -719
135 -873 229 l-50 31 0 -505z"/>
</g>
</svg>
