<?xml version="1.0" standalone="no"?>
<!DOCTYPE svg PUBLIC "-//W3C//DTD SVG 20010904//EN"
 "http://www.w3.org/TR/2001/REC-SVG-20010904/DTD/svg10.dtd">
<svg version="1.0" xmlns="http://www.w3.org/2000/svg"
 width="1000.000000pt" height="1000.000000pt" viewBox="0.69942755 0.5171509 999.40063 998.8206"
 preserveAspectRatio="xMidYMid meet">

<g transform="translate(0.000000,1000.000000) scale(0.100000,-0.100000)"
fill="#000000" stroke="none">
<path d="M4219 9990 c-410 -51 -741 -339 -851 -740 -20 -74 -23 -107 -22 -255
1 -201 16 -272 93 -430 85 -172 214 -316 370 -412 100 -61 138 -97 167 -158
23 -48 24 -58 24 -300 0 -241 -1 -252 -24 -300 -36 -78 -95 -123 -229 -173
-227 -86 -409 -204 -587 -382 -172 -172 -287 -345 -371 -560 -288 -731 -33
-1556 615 -1993 104 -70 240 -139 381 -193 78 -29 109 -47 141 -81 68 -70 74
-100 74 -383 0 -244 0 -246 -26 -298 -32 -64 -79 -106 -163 -145 -75 -35 -161
-41 -222 -14 -67 30 -824 488 -858 520 -18 18 -44 55 -57 82 -23 49 -24 53
-17 260 5 175 3 228 -11 315 -91 541 -501 967 -1046 1086 -119 26 -410 26
-528 1 -261 -57 -475 -172 -663 -354 -266 -258 -401 -577 -402 -948 -1 -372
129 -684 392 -945 196 -195 418 -313 691 -367 102 -21 371 -23 470 -4 182 34
366 109 519 211 49 33 107 68 128 76 48 20 138 20 186 0 21 -8 222 -126 447
-261 508 -305 488 -284 500 -530 15 -290 102 -499 288 -684 91 -91 174 -149
288 -203 148 -69 214 -82 419 -82 167 0 187 2 270 27 347 104 603 367 695 712
28 104 37 287 20 392 -46 290 -208 540 -445 691 -111 70 -152 108 -183 166
l-27 51 0 250 c0 233 1 253 21 295 43 93 85 126 227 177 241 86 497 262 669
459 330 377 475 887 393 1374 -75 443 -317 826 -690 1092 -112 80 -263 155
-447 222 -58 21 -123 83 -151 144 -21 44 -22 62 -22 297 0 242 1 252 23 297
65 130 239 214 363 175 71 -22 859 -499 901 -545 19 -21 43 -60 53 -86 17 -43
17 -60 6 -199 -26 -336 40 -602 214 -868 127 -194 308 -354 520 -459 502 -248
1095 -158 1505 226 201 190 346 462 395 740 20 115 19 335 -1 455 -71 412
-340 771 -719 959 -211 105 -400 145 -635 137 -272 -10 -496 -84 -715 -234
-44 -31 -97 -62 -119 -69 -47 -17 -129 -17 -176 -1 -40 15 -797 466 -851 508
-19 15 -48 51 -64 81 -27 49 -30 63 -36 203 -11 222 -56 370 -161 531 -135
205 -350 358 -588 418 -107 27 -263 38 -361 26z m266 -3882 c127 -44 212 -121
274 -248 35 -73 36 -78 36 -195 0 -119 0 -121 -38 -198 -50 -102 -121 -173
-223 -224 -77 -38 -79 -38 -198 -38 -119 0 -123 1 -196 36 -126 61 -201 144
-249 274 -31 81 -31 215 -2 299 88 250 349 379 596 294z"/>
<path d="M1120 8240 c-298 -63 -555 -267 -686 -545 -61 -126 -85 -232 -91
-390 -6 -166 13 -278 70 -419 96 -236 309 -446 547 -543 360 -145 780 -65
1058 201 158 151 256 333 298 552 22 117 15 305 -16 419 -101 377 -401 658
-778 731 -103 20 -297 17 -402 -6z"/>
<path d="M7795 4394 c-310 -9 -700 -46 -950 -89 -657 -114 -874 -294 -552
-457 212 -107 612 -183 1207 -229 202 -16 927 -16 1140 -1 600 45 1039 131
1235 242 372 212 -146 438 -1177 514 -196 15 -698 26 -903 20z"/>
<path d="M6140 3305 c0 -555 -1 -547 60 -599 81 -67 269 -137 502 -185 183
-37 381 -66 402 -58 9 4 16 18 16 34 0 54 31 159 70 238 115 238 362 395 683
435 181 22 440 10 642 -31 106 -22 300 -82 322 -101 11 -8 13 -62 11 -257 -3
-213 -5 -245 -18 -242 -8 3 -64 22 -125 42 -235 79 -559 120 -720 90 -145 -27
-243 -108 -253 -209 l-4 -49 63 -6 c92 -9 688 0 864 13 694 50 1165 160 1305
305 l35 36 3 520 c1 287 -1 519 -5 517 -5 -2 -44 -22 -88 -44 -536 -277 -2169
-352 -3193 -148 -245 49 -449 119 -544 186 l-28 19 0 -506z"/>
<path d="M6140 2105 c0 -404 3 -512 14 -538 18 -44 67 -84 151 -123 302 -140
897 -227 1630 -238 328 -5 445 0 445 18 0 29 -63 135 -107 180 -89 91 -158
127 -406 212 -192 66 -329 123 -422 177 -99 57 -223 184 -263 268 -33 69 -61
173 -62 224 -1 52 -10 56 -149 76 -362 51 -676 141 -803 231 l-28 19 0 -506z"/>
<path d="M9905 2555 c-303 -163 -1014 -264 -1870 -265 l-270 -1 49 -45 c84
-77 231 -147 471 -224 469 -151 681 -349 736 -685 l12 -77 61 6 c34 4 126 18
206 32 357 62 579 141 670 239 l25 27 3 519 c1 285 -1 518 -5 518 -5 -1 -44
-21 -88 -44z"/>
<path d="M6140 905 c0 -555 -1 -547 60 -599 160 -134 606 -233 1300 -287 205
-17 928 -16 1145 0 702 52 1176 162 1315 306 l35 36 3 524 3 524 -58 -35 c-82
-49 -197 -91 -368 -134 -127 -32 -404 -82 -510 -92 -29 -3 -29 -4 -41 -89 -58
-400 -357 -655 -819 -698 -115 -10 -328 -6 -454 9 -195 25 -389 80 -558 160
l-103 49 0 284 0 284 -97 12 c-339 44 -661 132 -804 221 l-49 30 0 -505z"/>
<path d="M7140 1130 c27 -20 208 -109 292 -144 217 -90 363 -125 545 -133 115
-5 140 -3 201 16 79 24 159 87 192 152 41 78 57 74 -277 73 -347 -2 -591 9
-913 42 -42 4 -51 3 -40 -6z"/>
</g>
</svg>
