<?xml version="1.0" standalone="no"?>
<!DOCTYPE svg PUBLIC "-//W3C//DTD SVG 20010904//EN"
 "http://www.w3.org/TR/2001/REC-SVG-20010904/DTD/svg10.dtd">
<svg version="1.0" xmlns="http://www.w3.org/2000/svg"
 width="1000.000000pt" height="1000.000000pt" viewBox="0.4207428 0.41394043 999.6793 998.9238"
 preserveAspectRatio="xMidYMid meet">

<g transform="translate(0.000000,1000.000000) scale(0.100000,-0.100000)"
fill="#000000" stroke="none">
<path d="M4228 9989 c-84 -11 -210 -57 -288 -104 -162 -99 -284 -263 -336
-456 -24 -88 -24 -280 0 -368 146 -536 766 -742 1205 -399 263 206 351 602
201 910 -142 290 -461 461 -782 417z"/>
<path d="M1911 9234 c-70 -19 -111 -44 -160 -100 -78 -88 -98 -228 -50 -334
26 -55 578 -724 838 -1014 340 -380 834 -835 1246 -1147 195 -147 318 -196
510 -206 125 -6 222 9 333 53 91 37 148 72 272 167 347 268 564 460 905 800
283 283 334 338 664 732 139 165 294 349 344 408 154 182 177 226 177 339 0
120 -65 225 -173 277 -119 57 -199 51 -337 -27 -47 -27 -384 -226 -750 -444
-712 -423 -759 -450 -891 -496 -381 -135 -816 -109 -1171 69 -45 23 -227 127
-403 232 -1241 738 -1149 684 -1214 697 -66 12 -73 12 -140 -6z"/>
<path d="M953 8304 c-61 -22 -137 -95 -170 -162 -23 -47 -28 -70 -27 -132 0
-88 12 -119 107 -278 36 -59 157 -262 269 -452 113 -190 278 -468 368 -619
219 -369 267 -476 316 -701 27 -122 27 -468 0 -590 -23 -106 -67 -239 -110
-334 -19 -40 -235 -412 -481 -827 -322 -542 -452 -769 -463 -809 -39 -150 48
-315 197 -371 45 -17 71 -20 131 -17 93 6 144 31 255 124 44 37 220 185 390
328 471 397 530 449 811 730 408 409 842 924 937 1113 97 192 112 417 43 621
-33 97 -55 136 -142 253 -318 428 -717 864 -1154 1262 -131 120 -245 217 -804
685 -94 79 -189 153 -211 165 -53 28 -200 34 -262 11z"/>
<path d="M7458 8292 c-54 -26 -743 -595 -1015 -839 -152 -136 -526 -513 -668
-673 -273 -306 -526 -627 -584 -740 -71 -137 -86 -203 -85 -380 0 -141 3 -162
27 -235 15 -44 44 -110 64 -148 65 -115 388 -515 650 -805 l48 -53 54 37 c185
126 575 249 995 315 77 13 142 24 144 25 2 1 -21 44 -51 96 -234 398 -279 873
-122 1294 51 134 62 156 263 494 96 162 259 437 362 610 103 173 222 374 265
445 92 155 105 188 105 271 0 126 -62 229 -172 283 -53 27 -72 31 -142 31 -68
0 -90 -5 -138 -28z"/>
<path d="M638 6410 c-281 -51 -498 -232 -589 -491 -144 -405 70 -831 487 -971
60 -20 89 -23 219 -23 162 0 222 13 339 72 199 100 348 293 398 514 18 81 15
251 -6 334 -70 268 -267 472 -528 545 -82 23 -247 34 -320 20z"/>
<path d="M7805 6410 c-154 -23 -292 -90 -409 -201 -165 -156 -246 -359 -233
-584 11 -193 81 -350 217 -485 96 -95 166 -141 278 -181 288 -101 592 -26 802
198 79 84 132 172 167 278 24 71 27 96 27 225 1 165 -16 241 -81 360 -153 280
-459 436 -768 390z"/>
<path d="M4181 4889 c-143 -28 -258 -89 -446 -236 -391 -304 -753 -632 -1063
-963 -257 -274 -931 -1078 -967 -1153 -74 -155 -9 -338 147 -417 51 -25 73
-30 133 -30 86 0 124 12 225 72 41 25 244 145 450 268 1080 642 994 593 1132
646 387 150 837 130 1201 -52 69 -34 505 -289 707 -413 19 -11 38 -21 43 -21
4 0 7 303 7 674 l0 673 -97 95 c-233 227 -684 606 -876 737 -126 86 -283 131
-447 130 -58 -1 -125 -5 -149 -10z"/>
<path d="M7795 4394 c-310 -9 -700 -46 -950 -89 -657 -114 -874 -294 -552
-457 212 -107 612 -183 1207 -229 202 -16 927 -16 1140 -1 600 45 1039 131
1235 242 372 212 -146 438 -1177 514 -196 15 -698 26 -903 20z"/>
<path d="M6140 3305 c0 -404 3 -512 14 -538 49 -118 339 -222 816 -293 234
-34 214 -39 229 54 42 248 184 432 426 548 168 81 344 110 615 101 227 -8 441
-47 612 -113 l68 -26 0 -252 0 -253 -127 43 c-71 24 -189 55 -263 71 -116 23
-159 27 -305 28 -154 0 -177 -2 -239 -24 -96 -33 -159 -95 -177 -175 -7 -31
-9 -59 -5 -64 12 -11 650 -6 836 7 703 49 1178 160 1320 306 l35 36 3 520 c1
287 -1 519 -5 517 -5 -2 -44 -22 -88 -44 -536 -277 -2169 -352 -3193 -148
-245 49 -449 119 -544 186 l-28 19 0 -506z"/>
<path d="M4195 2826 c-160 -32 -271 -92 -391 -211 -77 -76 -98 -105 -137 -185
-65 -133 -81 -200 -81 -345 0 -141 16 -211 75 -331 96 -197 276 -341 492 -396
67 -17 102 -19 206 -16 214 8 351 68 501 218 95 95 139 163 184 283 28 78 30
90 30 237 1 173 -9 221 -70 344 -95 188 -277 337 -479 391 -86 22 -245 28
-330 11z"/>
<path d="M6140 2105 c0 -404 3 -512 14 -538 66 -160 585 -292 1361 -348 180
-13 929 -18 941 -7 3 4 -8 37 -25 74 -66 140 -207 238 -461 320 -527 169 -718
328 -771 647 -11 65 -16 78 -34 82 -11 2 -78 11 -150 20 -365 46 -715 144
-847 237 l-28 19 0 -506z"/>
<path d="M9905 2555 c-200 -108 -593 -192 -1095 -234 -230 -20 -321 -24 -638
-30 l-324 -6 32 -33 c75 -79 192 -136 453 -223 394 -131 580 -258 692 -471 38
-71 75 -199 75 -255 0 -29 3 -33 28 -33 15 0 93 12 172 26 361 63 579 141 670
239 l25 27 3 519 c1 285 -1 518 -5 518 -5 -1 -44 -21 -88 -44z"/>
<path d="M6140 905 c0 -555 -1 -547 60 -599 160 -134 606 -233 1300 -287 205
-17 928 -16 1145 0 702 52 1176 162 1315 306 l35 36 3 524 3 524 -58 -35
c-125 -75 -361 -145 -654 -193 -93 -16 -172 -30 -174 -33 -3 -2 -9 -40 -15
-84 -37 -273 -190 -486 -436 -605 -177 -86 -428 -121 -710 -100 -259 19 -486
75 -695 172 l-89 42 -2 281 -3 281 -150 21 c-396 56 -677 132 -825 223 l-50
31 0 -505z"/>
<path d="M7248 1111 c88 -57 247 -126 427 -187 224 -76 464 -98 591 -53 82 29
149 86 180 154 13 27 24 55 24 60 0 6 -139 10 -397 10 -348 1 -554 9 -795 31
l-63 6 33 -21z"/>
</g>
</svg>
