<?xml version="1.0" standalone="no"?>
<!DOCTYPE svg PUBLIC "-//W3C//DTD SVG 20010904//EN"
 "http://www.w3.org/TR/2001/REC-SVG-20010904/DTD/svg10.dtd">
<svg version="1.0" xmlns="http://www.w3.org/2000/svg"
 width="1000.000000pt" height="1000.000000pt" viewBox="0 0 1000.000000 1000.000000"
 preserveAspectRatio="xMidYMid meet">

<g transform="translate(0.000000,1000.000000) scale(0.100000,-0.100000)"
fill="#000000" stroke="none">
<path d="M6893 9977 c-15 -13 -35 -26 -44 -30 -10 -3 -262 -6 -560 -7 -474 -2
-550 0 -594 14 -60 19 -107 20 -240 5 -93 -11 -103 -11 -139 8 l-40 20 -55
-26 c-52 -24 -68 -26 -236 -29 -102 -3 -241 1 -320 8 -128 12 -145 11 -200 -5
-48 -14 -88 -17 -195 -14 -74 2 -162 2 -194 1 -46 -2 -64 2 -80 17 -46 41 -57
42 -177 15 -98 -22 -146 -26 -344 -31 -231 -5 -530 8 -660 28 -68 10 -82 9
-223 -20 -24 -5 -55 -20 -70 -33 -22 -20 -32 -24 -55 -17 -15 4 -89 3 -164 -2
-96 -7 -159 -7 -208 1 -75 12 -884 16 -952 5 -21 -4 -54 -13 -75 -22 -34 -14
-40 -14 -97 6 -52 18 -84 21 -219 21 -86 0 -175 -5 -197 -10 -27 -6 -82 -6
-165 2 -183 17 -189 17 -244 -21 -89 -61 -84 -46 -77 -242 6 -195 7 -620 1
-689 -2 -25 0 -112 4 -195 7 -123 5 -162 -8 -218 -19 -82 -20 -129 -3 -199 9
-35 12 -104 9 -208 -3 -159 -3 -1010 1 -1295 1 -88 0 -239 -2 -335 -2 -96 -1
-204 3 -240 6 -53 4 -76 -13 -124 -28 -80 -26 -120 9 -191 34 -69 38 -123 13
-181 -12 -29 -19 -93 -26 -244 -12 -253 -13 -311 -2 -580 8 -203 7 -218 -12
-260 -17 -38 -19 -64 -18 -175 2 -92 7 -142 18 -170 33 -81 13 -510 -26 -566
-23 -32 -22 -47 14 -124 l31 -66 -18 -90 c-16 -79 -16 -97 -5 -147 7 -31 17
-163 22 -292 5 -129 9 -244 10 -255 0 -11 -2 -78 -6 -150 -7 -118 -6 -137 15
-210 22 -78 22 -87 16 -405 -4 -179 -12 -345 -18 -370 -5 -25 -12 -186 -15
-358 -5 -302 -4 -315 16 -362 18 -42 21 -69 21 -187 0 -116 4 -145 20 -182 24
-51 25 -89 5 -115 -22 -29 -19 -80 6 -102 29 -26 65 -91 78 -141 17 -63 44
-79 146 -86 87 -6 109 -14 235 -83 24 -13 57 -24 72 -24 34 0 90 22 125 50 14
11 29 17 34 14 5 -3 110 -7 233 -10 192 -4 232 -3 273 11 76 26 169 23 238 -9
66 -30 123 -33 208 -11 32 8 98 15 148 15 63 0 99 5 121 16 42 22 128 29 172
14 29 -9 64 -9 162 0 l125 13 82 -39 c45 -21 95 -38 112 -38 16 1 53 16 82 34
55 34 64 35 138 6 51 -20 225 -20 320 -1 58 11 109 12 292 3 173 -9 235 -8
280 1 32 7 90 14 128 15 44 1 95 11 138 26 l69 24 37 -21 c56 -32 100 -37 254
-24 78 6 194 15 257 21 69 5 188 5 300 0 187 -9 856 2 918 15 26 6 41 2 73
-19 l40 -27 97 27 c127 35 170 39 216 20 61 -25 304 -23 374 4 65 25 137 25
227 1 61 -16 103 -18 327 -16 242 3 259 4 291 24 45 27 86 27 128 -2 34 -23
35 -23 84 -6 70 25 129 23 214 -6 46 -16 81 -23 94 -19 12 4 56 6 98 5 56 -1
90 4 131 19 51 19 58 19 91 5 46 -19 87 -19 136 1 37 14 41 14 78 -5 l40 -20
54 27 c56 28 90 31 269 21 42 -2 66 3 100 20 38 20 53 23 112 17 60 -5 74 -3
116 18 46 23 47 23 77 5 34 -21 71 -24 112 -8 20 8 57 8 134 -1 105 -12 106
-12 156 14 53 26 75 51 112 124 33 64 42 130 29 204 -8 47 -8 88 2 168 11 96
10 116 -8 215 -28 151 -46 311 -37 332 9 23 22 429 29 908 3 209 10 404 16
433 9 49 7 59 -16 109 -38 80 -43 166 -14 244 29 80 23 131 -25 239 -51 113
-54 187 -11 272 25 50 27 61 17 85 -6 15 -30 43 -51 61 l-40 33 -33 -20 c-38
-24 -57 -58 -57 -104 0 -50 -26 -141 -61 -209 -34 -66 -34 -78 -9 -217 6 -35
6 -79 0 -120 -15 -103 -12 -171 11 -257 20 -73 22 -110 26 -484 7 -578 6 -759
-5 -810 -6 -25 -16 -71 -23 -102 -11 -48 -11 -70 1 -130 19 -95 17 -216 -4
-298 -13 -52 -15 -93 -10 -200 3 -74 6 -148 7 -165 2 -84 -62 -125 -165 -105
-54 10 -58 10 -104 -20 -40 -25 -58 -30 -108 -30 -116 0 -332 -21 -431 -41
-82 -17 -118 -20 -195 -14 -108 8 -110 8 -280 0 -110 -6 -132 -4 -182 14 -53
18 -63 19 -110 6 -51 -13 -53 -12 -82 12 -25 21 -36 24 -75 19 -121 -15 -222
-18 -249 -7 -16 7 -107 16 -203 21 -96 6 -195 13 -221 16 -32 4 -65 0 -103
-11 -48 -16 -61 -16 -95 -5 -27 9 -57 10 -97 5 -32 -5 -84 -7 -116 -6 -44 2
-71 -4 -113 -23 -54 -25 -55 -25 -87 -6 -33 19 -152 43 -222 44 -28 0 -65 -12
-121 -41 l-81 -41 -147 4 c-109 2 -157 0 -180 -10 -27 -11 -37 -11 -60 1 -53
28 -130 33 -264 17 -143 -17 -234 -13 -360 16 -112 27 -157 26 -212 -5 -143
-80 -155 -84 -271 -96 -124 -12 -240 -7 -313 15 -38 12 -47 12 -57 0 -18 -22
-71 -26 -140 -10 -35 8 -112 20 -169 27 -91 10 -113 10 -168 -5 -37 -9 -103
-16 -157 -16 -63 0 -105 -5 -131 -16 -46 -19 -157 -13 -204 11 -38 19 -158 19
-230 0 -35 -9 -111 -15 -210 -16 -230 -3 -280 0 -335 19 -41 14 -79 17 -210
14 -88 -1 -238 2 -334 7 -115 6 -194 6 -231 -1 -47 -8 -70 -6 -121 7 -101 28
-389 29 -614 3 -242 -28 -385 -33 -441 -18 -24 7 -64 30 -87 51 -24 20 -70 53
-103 73 -107 63 -124 82 -140 161 -8 39 -18 149 -23 245 -5 96 -14 189 -21
205 -9 23 -9 44 0 96 7 36 10 83 7 105 -2 21 -10 77 -16 124 -32 251 -35 319
-23 584 15 328 16 803 1 882 -6 32 -11 97 -11 144 -1 160 13 565 22 650 5 49
5 165 0 275 -5 105 -6 222 -3 261 4 53 1 86 -12 127 -20 66 -16 104 23 192 27
59 27 63 26 265 -1 113 -1 246 -1 295 5 376 1 542 -15 595 -14 45 -17 112 -20
360 -3 302 -3 305 20 341 29 47 30 134 2 221 -33 100 -35 187 -11 303 24 111
44 349 39 464 -4 88 11 103 40 39 11 -24 44 -73 75 -110 31 -39 62 -89 72
-117 16 -48 34 -72 185 -242 56 -63 63 -68 212 -131 84 -36 173 -72 197 -79
l43 -13 -5 -55 c-3 -31 -12 -92 -21 -136 -24 -123 -22 -404 3 -486 17 -55 20
-98 22 -302 l2 -238 -99 -77 c-54 -42 -116 -99 -137 -127 -21 -27 -77 -126
-123 -220 -123 -246 -175 -343 -217 -403 -46 -67 -108 -252 -118 -352 -4 -41
-19 -151 -33 -245 -24 -157 -26 -195 -26 -503 0 -267 -3 -347 -16 -402 -14
-64 -14 -78 0 -162 21 -122 22 -462 2 -530 -27 -86 9 -231 79 -323 38 -49 113
-97 139 -88 12 3 48 6 82 4 85 -2 89 3 87 153 -2 289 -19 832 -26 843 -4 7 -3
68 3 135 6 68 11 201 11 296 0 100 6 219 15 280 8 58 19 160 24 226 5 67 17
163 26 214 14 78 15 105 5 164 -11 68 -11 72 25 176 24 72 47 119 69 143 17
19 47 60 65 90 18 30 45 62 61 71 18 11 38 37 53 72 14 31 31 56 39 56 22 0
67 -40 79 -69 6 -16 9 -154 8 -360 -1 -273 -4 -345 -17 -392 -12 -45 -14 -73
-7 -126 10 -73 3 -356 -17 -738 -7 -132 -13 -406 -14 -610 -1 -225 -6 -396
-13 -436 -12 -67 -9 -89 22 -162 16 -36 16 -45 0 -130 -26 -145 -27 -185 -9
-307 10 -63 19 -185 20 -270 2 -85 7 -178 12 -206 5 -29 6 -76 2 -105 -13 -91
-10 -202 7 -260 30 -99 123 -157 238 -147 32 2 42 9 58 38 16 29 18 47 13 103
-5 49 -2 83 10 124 14 48 15 66 5 113 -8 40 -9 68 -1 100 14 60 14 121 -1 193
-11 51 -10 65 6 109 9 27 21 100 26 161 5 62 12 139 15 172 5 48 1 80 -21 160
-35 132 -39 173 -20 219 23 54 20 107 -9 176 -33 78 -33 142 0 195 13 22 25
56 25 75 0 19 7 66 15 104 8 39 11 89 8 113 -4 28 1 67 12 108 18 70 17 108
-10 195 -15 48 -18 130 -22 625 -3 314 -6 599 -6 635 -1 51 5 78 28 128 26 59
28 67 17 110 -11 45 -19 368 -9 378 5 5 180 -111 195 -129 6 -7 26 -73 45
-147 20 -74 47 -171 62 -215 37 -116 68 -299 61 -365 -7 -74 18 -316 38 -362
19 -44 23 -282 5 -352 -8 -32 -7 -57 4 -106 13 -54 14 -103 7 -285 -9 -212 -7
-251 21 -500 10 -89 4 -156 -20 -218 -18 -47 -13 -91 19 -154 42 -83 48 -87
112 -75 64 13 159 40 166 47 3 3 9 33 14 67 4 34 14 71 21 82 9 15 13 82 15
236 2 238 17 513 33 635 21 153 8 403 -27 539 -9 32 -13 69 -9 83 l6 24 31
-26 c31 -26 34 -27 122 -20 50 4 127 16 171 27 62 16 94 18 145 13 36 -4 117
-7 182 -5 110 2 117 1 128 -20 6 -12 18 -86 25 -165 16 -168 17 -171 61 -377
65 -301 69 -291 -240 -611 -254 -262 -284 -299 -316 -385 -34 -89 -50 -114
-121 -188 -46 -48 -78 -93 -98 -136 -16 -36 -53 -92 -84 -126 -60 -68 -89
-134 -108 -245 -8 -51 -22 -83 -54 -133 -24 -37 -47 -84 -50 -107 -4 -23 -32
-98 -62 -167 -39 -88 -58 -144 -63 -190 -4 -36 -19 -104 -34 -152 -24 -74 -26
-92 -16 -127 30 -113 167 -107 285 13 33 34 74 88 92 121 30 58 126 345 137
415 7 36 21 63 93 169 40 59 59 104 83 197 5 23 30 68 55 100 37 48 69 114
108 226 3 9 24 26 46 37 50 26 78 66 87 122 9 56 17 72 84 151 43 51 63 67 90
71 75 14 170 112 215 224 27 67 47 85 69 63 22 -22 66 -163 66 -210 0 -30 17
-78 60 -169 32 -70 64 -150 70 -177 33 -140 45 -176 85 -260 24 -50 64 -113
90 -141 30 -34 60 -86 90 -153 58 -134 198 -342 295 -439 45 -45 97 -111 127
-161 68 -112 111 -160 255 -282 72 -61 127 -116 138 -138 23 -45 34 -50 111
-50 68 0 81 12 99 94 6 26 17 61 25 77 23 44 18 68 -21 102 -20 18 -47 56 -60
85 -16 35 -37 61 -64 80 -166 113 -176 124 -300 312 -37 58 -93 130 -124 160
-72 70 -108 125 -141 211 -17 45 -38 79 -61 99 -19 16 -38 30 -42 30 -18 0
-40 60 -45 125 -6 68 -7 71 -56 115 -49 45 -49 45 -53 116 -3 68 -6 74 -46
118 -35 38 -42 52 -40 83 1 29 -7 50 -33 86 l-34 49 -1 141 c-1 78 -4 180 -8
227 -6 65 -5 89 6 103 9 13 61 28 178 53 90 20 177 42 192 50 15 8 39 32 53
54 24 38 28 40 73 40 27 0 82 9 124 20 42 11 116 23 164 26 75 6 96 11 133 35
40 26 53 29 130 29 76 0 91 3 124 25 66 46 79 100 55 231 -6 36 -19 71 -29 80
-26 24 -88 28 -147 11 -33 -10 -70 -14 -101 -10 -58 7 -177 -20 -206 -47 -30
-27 -70 -40 -128 -40 -46 0 -55 -4 -92 -40 l-42 -41 -46 13 c-41 11 -52 10
-99 -9 -29 -12 -76 -24 -105 -26 -30 -4 -80 -21 -122 -42 -39 -19 -93 -38
-119 -41 -28 -4 -64 -18 -89 -35 -34 -24 -93 -40 -93 -26 0 2 9 30 20 61 19
58 19 58 0 97 -12 22 -24 75 -29 121 -5 46 -14 97 -21 113 -7 17 -15 86 -17
155 -6 165 -6 165 107 149 68 -10 102 -10 170 0 47 7 137 15 200 17 63 1 171
4 240 6 111 3 536 -7 599 -14 18 -2 29 5 43 29 19 32 19 32 -12 132 -32 106
-62 152 -107 169 -51 18 -418 35 -516 22 -48 -6 -104 -8 -124 -4 -35 7 -132 7
-403 1 l-135 -3 -38 33 c-40 36 -41 36 -107 37 -43 1 -45 2 -69 51 -21 42 -25
65 -26 140 0 54 -5 99 -13 113 -18 31 -3 29 76 -9 61 -30 67 -31 145 -24 183
16 387 54 439 82 64 35 149 127 184 200 28 58 28 58 31 295 2 207 5 244 22
294 51 143 56 143 320 -39 29 -21 65 -40 80 -43 14 -3 42 -12 61 -19 19 -7 62
-16 96 -18 58 -5 86 -16 179 -72 46 -28 87 -32 105 -10 9 11 14 58 15 151 2
160 -3 171 -93 204 -31 12 -83 41 -116 66 -36 26 -71 44 -86 44 -42 0 -146 57
-256 141 -55 42 -125 92 -155 111 -30 19 -78 64 -106 99 -70 87 -162 175 -255
242 -76 56 -78 58 -99 128 -18 60 -20 77 -10 109 6 20 11 49 11 63 0 48 29 69
111 77 58 5 95 17 171 53 l98 47 132 0 c87 0 175 7 253 20 98 17 144 19 251
14 125 -6 132 -6 153 15 19 19 21 32 21 139 0 110 -2 120 -23 140 -12 12 -53
28 -92 37 -60 14 -90 15 -225 5 -85 -6 -171 -16 -191 -22 -30 -9 -47 -7 -98
11 -76 26 -136 26 -287 1 -66 -11 -166 -24 -224 -30 -65 -6 -120 -18 -145 -30
-33 -16 -105 -28 -105 -17 -1 45 -24 124 -43 147 -31 36 -109 233 -105 263 3
21 8 22 143 27 106 4 148 10 173 23 28 15 35 16 60 3 15 -7 59 -19 97 -26 64
-11 80 -10 170 10 55 12 119 33 143 46 39 21 48 22 100 12 110 -20 439 12 547
55 l60 23 3 64 c4 81 -9 110 -66 151 -46 33 -49 34 -142 32 -297 -4 -964 -23
-1018 -29 -49 -4 -78 -1 -135 16 -71 22 -98 22 -209 4 -35 -6 -38 -4 -38 18 0
13 -20 58 -45 100 -66 112 -65 118 19 135 38 8 87 23 110 33 22 11 82 24 131
29 154 18 318 51 365 74 29 14 78 59 141 129 129 142 151 197 185 458 14 102
34 237 46 301 12 70 18 132 15 155 -10 62 -35 145 -49 162 -15 18 -126 72
-149 72 -8 0 -28 -14 -45 -31 -27 -28 -29 -35 -26 -99 2 -62 -4 -89 -57 -247
-33 -98 -64 -204 -70 -237 -6 -32 -25 -83 -43 -115 -18 -31 -51 -101 -73 -156
-36 -89 -45 -102 -80 -122 -60 -33 -152 -51 -335 -63 l-165 -11 -72 36 c-95
47 -113 71 -113 149 0 73 -11 117 -55 216 -22 49 -39 111 -49 179 -30 192
-120 496 -166 561 -25 34 -61 47 -94 32 -28 -13 -155 -168 -163 -200 -3 -12 7
-80 21 -150 14 -71 26 -152 26 -182 0 -31 10 -84 24 -124 16 -45 29 -116 36
-194 12 -133 37 -245 71 -320 11 -26 25 -81 30 -122 5 -44 18 -92 32 -120 14
-25 47 -88 75 -140 54 -100 61 -130 37 -150 -8 -7 -22 -37 -31 -66 -13 -47
-19 -54 -51 -65 -53 -17 -197 -7 -256 19 -44 20 -57 21 -150 13 -60 -5 -103
-13 -105 -20 -6 -19 -58 -41 -96 -41 -49 0 -71 41 -62 114 8 63 -1 77 -112
172 l-75 64 -87 -88 c-89 -89 -104 -113 -142 -232 -31 -96 -53 -136 -95 -167
-48 -36 -51 -39 -64 -90 -9 -35 -17 -44 -45 -53 -20 -7 -52 -33 -80 -66 -26
-30 -52 -54 -60 -54 -23 0 -35 39 -35 113 2 152 -17 953 -22 967 -3 8 -11 67
-17 131 -9 95 -8 143 5 261 22 202 22 266 0 308 -13 24 -18 52 -16 90 1 30 3
71 4 91 2 62 -29 126 -77 154 -24 14 -56 25 -73 25 -28 0 -44 -9 -134 -79 -36
-28 -47 -78 -54 -256 -5 -114 -12 -165 -28 -211 l-21 -61 22 -58 c29 -74 29
-162 0 -251 -28 -91 -28 -166 0 -221 18 -35 22 -59 22 -140 0 -54 5 -154 12
-223 8 -94 8 -164 0 -278 -8 -105 -8 -170 -1 -210 9 -49 7 -71 -10 -139 -12
-45 -21 -104 -21 -132 0 -46 -2 -51 -23 -51 -59 0 -192 96 -242 175 -52 81
-172 321 -212 425 -20 52 -58 129 -84 170 -26 41 -60 95 -76 120 -22 36 -34
46 -60 48 -29 3 -36 -2 -54 -32 -12 -20 -24 -36 -28 -36 -5 0 -11 44 -14 98
-4 59 -15 122 -28 158 -18 52 -20 76 -16 209 3 124 7 156 23 185 17 32 19 60
21 320 1 248 4 290 19 325 14 32 18 71 19 185 1 80 5 155 9 166 5 17 18 23 60
28 47 6 57 12 90 52 36 43 40 45 77 39 22 -4 66 0 106 9 47 10 149 17 333 21
410 8 798 24 875 35 123 17 179 13 281 -22 l94 -32 53 22 c65 27 105 28 165 2
41 -18 56 -19 112 -11 40 5 92 5 135 -1 39 -5 84 -7 100 -4 17 3 52 10 79 16
38 8 69 6 129 -5 57 -11 148 -15 327 -15 223 0 255 2 315 21 64 20 82 20 384
14 520 -10 547 -10 776 4 121 7 238 13 260 14 74 1 230 -21 276 -39 43 -16 55
-17 136 -5 71 10 109 10 179 0 68 -9 148 -9 344 0 143 6 463 10 730 7 406 -3
484 -1 533 12 50 13 73 14 155 4 53 -7 118 -12 144 -12 26 0 80 -7 120 -16 40
-8 113 -20 162 -25 49 -5 106 -14 126 -20 30 -9 42 -8 61 4 44 28 85 29 182 7
87 -20 101 -21 242 -10 337 26 484 33 760 34 344 1 381 -4 443 -66 23 -22 45
-54 50 -72 55 -183 55 -186 42 -257 -9 -54 -9 -92 1 -180 18 -169 6 -354 -39
-603 -38 -209 -38 -210 -21 -262 26 -77 36 -93 97 -156 70 -72 92 -75 149 -15
84 87 102 155 78 292 -11 62 -16 121 -12 163 3 37 1 109 -5 161 -9 84 -8 106
13 207 20 97 22 120 12 157 -9 33 -9 82 0 208 16 215 15 325 -2 432 -12 71
-12 97 -2 136 20 79 2 98 -79 79 -38 -9 -72 -9 -139 0 -48 7 -137 12 -197 12
-60 0 -138 5 -174 11 -94 15 -202 13 -398 -10 -161 -19 -176 -19 -205 -5 -22
12 -64 17 -146 19 -115 3 -116 3 -149 -26 -38 -34 -42 -34 -108 -13 -27 8 -80
19 -117 24 -37 4 -104 18 -148 31 -85 25 -120 22 -214 -15 -24 -9 -72 -15
-120 -16 -59 0 -91 -5 -118 -19 l-37 -19 -93 31 c-114 38 -261 46 -407 24 -95
-15 -95 -15 -131 9 -44 30 -70 30 -106 1z m-3676 -2649 c19 -24 33 -107 33
-195 0 -105 18 -185 59 -273 17 -36 31 -80 31 -97 0 -32 -4 -35 -118 -92 -65
-33 -138 -65 -163 -71 -63 -17 -98 -37 -144 -80 -30 -28 -52 -39 -87 -44 -29
-5 -60 -18 -84 -37 -20 -16 -42 -29 -48 -29 -19 0 -250 -113 -296 -146 -25
-17 -76 -49 -115 -72 -38 -22 -95 -63 -126 -91 -34 -30 -94 -68 -150 -95 -52
-24 -113 -56 -136 -70 -25 -16 -44 -22 -48 -16 -11 17 -35 11 -61 -16 -25 -24
-26 -28 -19 -103 6 -68 4 -85 -14 -126 -29 -66 -27 -100 8 -136 49 -49 79 -42
222 54 210 142 288 187 383 224 50 19 114 50 141 68 28 18 125 69 216 112 121
59 180 93 220 130 50 45 61 50 116 56 73 8 151 36 218 78 63 40 117 59 167 59
52 0 102 -47 120 -115 10 -38 19 -50 48 -65 47 -24 64 -45 101 -121 43 -88 87
-139 150 -173 30 -16 75 -48 100 -71 25 -24 55 -46 67 -49 38 -13 28 -53 -27
-106 -68 -66 -91 -115 -102 -221 -5 -49 -13 -108 -19 -131 -5 -24 -10 -68 -10
-98 -1 -84 -26 -173 -76 -271 -46 -89 -79 -126 -118 -133 -12 -3 -53 -12 -92
-20 l-71 -16 -46 26 c-55 30 -87 67 -87 101 0 14 -16 61 -36 106 -42 95 -52
171 -34 255 11 52 10 63 -9 117 -16 44 -24 102 -32 220 -17 282 -22 298 -106
357 -40 27 -57 33 -101 33 -39 0 -57 -5 -66 -17 -27 -36 -46 -800 -26 -1005
10 -102 10 -144 1 -191 -17 -86 1 -289 33 -386 l25 -72 -18 -94 c-12 -60 -24
-98 -35 -106 -21 -15 -247 -11 -289 5 -41 16 -126 13 -181 -5 -40 -14 -55 -15
-90 -4 -42 12 -126 61 -145 84 -6 7 -15 79 -20 162 -13 186 -27 241 -96 379
-38 76 -60 134 -70 189 -17 89 -39 143 -83 202 -37 50 -247 234 -267 234 -20
0 -153 126 -171 163 -9 16 -20 56 -25 90 -5 34 -23 101 -40 149 -30 86 -30 87
-14 140 12 42 15 95 14 254 -1 111 1 206 4 211 9 14 10 273 2 331 l-8 53 54
50 c30 27 87 67 128 87 61 30 93 57 181 150 96 100 112 122 148 205 l41 92
203 9 c112 4 214 8 228 7 14 0 133 -5 265 -9 197 -7 248 -12 287 -27 44 -18
47 -18 70 -1 12 9 38 28 57 41 37 28 63 32 78 13z"/>
<path d="M7965 9530 c-98 -4 -128 -9 -162 -28 -46 -24 -178 -130 -313 -252
-98 -88 -152 -126 -230 -162 -66 -31 -85 -48 -155 -143 -57 -76 -98 -115 -122
-115 -8 0 -87 -71 -176 -158 -165 -162 -256 -236 -407 -334 -77 -49 -95 -68
-187 -189 -134 -176 -188 -272 -208 -368 -9 -42 -21 -89 -26 -106 -18 -53 -29
-189 -20 -223 5 -17 31 -59 56 -91 46 -58 47 -60 40 -113 -8 -64 2 -94 50
-146 43 -49 65 -99 65 -152 0 -23 5 -51 11 -63 6 -12 69 -80 139 -152 119
-120 129 -135 145 -190 9 -33 28 -86 42 -117 22 -49 32 -60 72 -78 27 -13 80
-56 127 -103 44 -45 108 -107 141 -137 38 -35 77 -85 108 -138 46 -81 94 -143
221 -289 33 -38 74 -94 92 -124 17 -30 47 -70 67 -89 22 -21 61 -83 95 -150
54 -107 61 -117 103 -137 49 -24 70 -54 81 -116 5 -26 41 -82 123 -190 135
-177 135 -178 257 -364 51 -78 107 -154 125 -169 17 -14 41 -45 53 -68 11 -22
33 -55 49 -71 15 -17 35 -49 43 -72 8 -22 68 -122 134 -220 148 -221 160 -246
172 -336 5 -39 17 -94 26 -120 12 -35 15 -66 10 -115 -24 -264 -18 -239 -67
-302 -33 -44 -49 -90 -49 -147 0 -59 -21 -100 -76 -153 -62 -59 -96 -111 -135
-210 -46 -117 -103 -198 -158 -227 -65 -34 -76 -46 -131 -153 -45 -88 -66
-114 -218 -273 -113 -118 -192 -209 -239 -279 -58 -86 -90 -121 -198 -213
-106 -92 -138 -126 -186 -200 -99 -155 -110 -168 -194 -217 -99 -59 -121 -81
-194 -196 l-58 -94 19 -66 c21 -71 45 -105 92 -129 38 -20 62 -12 126 43 30
26 71 54 90 63 19 9 56 37 82 63 25 26 72 61 103 79 41 23 65 46 90 85 19 30
91 115 159 189 68 73 136 155 151 182 16 26 57 74 92 106 35 33 79 87 99 120
25 44 87 111 204 225 172 166 179 175 236 312 13 32 56 82 144 170 136 135
153 157 273 354 121 199 124 204 188 362 62 156 67 182 45 234 -12 29 -11 40
11 109 33 102 33 207 -1 366 -14 66 -26 134 -26 151 0 48 -73 184 -129 241
-47 47 -49 52 -53 116 l-4 68 -75 72 c-48 46 -88 95 -109 135 -18 35 -51 83
-72 107 -21 24 -45 62 -53 86 -9 25 -42 70 -84 115 -55 57 -83 99 -135 201
-52 102 -79 142 -133 198 -37 39 -80 95 -96 125 -15 30 -60 91 -99 135 -96
107 -218 272 -218 295 0 10 12 23 29 30 16 6 49 33 73 58 25 26 76 75 114 109
38 34 93 83 123 110 30 26 85 89 122 140 53 72 87 105 148 148 109 77 255 245
316 365 13 26 47 74 75 106 31 36 78 112 119 194 37 74 85 166 105 204 l37 69
-5 114 c-5 112 -6 116 -56 226 -29 62 -78 176 -110 254 -77 185 -99 227 -161
309 -71 92 -251 395 -315 529 -62 130 -90 170 -146 208 -52 35 -58 43 -58 88
0 28 -11 49 -50 98 -27 34 -50 71 -50 82 0 34 27 74 69 103 56 39 106 117 142
221 32 96 38 140 22 156 -19 19 -76 24 -198 19z m-336 -795 c36 -18 161 -152
183 -196 9 -19 46 -93 81 -165 60 -122 134 -245 156 -259 5 -3 17 -29 25 -58
22 -76 61 -132 179 -255 87 -91 105 -115 110 -149 4 -23 23 -65 43 -94 58 -86
63 -101 89 -254 35 -206 25 -251 -75 -332 -27 -22 -71 -65 -97 -94 -26 -30
-91 -99 -144 -154 -77 -80 -99 -109 -109 -145 -15 -57 -36 -86 -135 -190 -45
-47 -114 -130 -155 -185 -68 -94 -210 -245 -229 -245 -5 0 -23 -22 -40 -50
-46 -74 -79 -68 -108 20 -15 47 -24 58 -58 75 -65 32 -302 278 -413 427 -54
73 -131 173 -170 222 -74 92 -147 222 -201 358 -17 43 -55 126 -85 186 -65
127 -83 192 -92 317 -9 118 13 195 89 315 29 47 74 120 101 162 35 58 82 111
184 207 75 71 165 149 199 173 71 49 229 179 312 255 67 61 122 88 210 102 35
6 66 13 69 16 10 10 53 5 81 -10z"/>
<path d="M7354 7776 c-37 -16 -65 -52 -127 -161 -65 -114 -101 -224 -88 -273
12 -41 57 -261 76 -365 14 -75 25 -91 109 -154 88 -65 102 -62 207 45 55 57
96 110 115 148 29 59 29 59 26 229 -1 94 -5 184 -8 200 -22 119 -113 286 -176
325 -38 23 -89 25 -134 6z"/>
<path d="M9793 7841 c-11 -11 -24 -37 -27 -58 -4 -21 -25 -77 -47 -125 -50
-108 -57 -163 -33 -248 21 -78 31 -378 16 -510 -6 -57 -5 -136 3 -240 6 -85 9
-222 6 -305 -2 -82 -4 -251 -2 -375 1 -142 -2 -253 -10 -301 -10 -65 -10 -91
6 -184 21 -129 16 -231 -16 -350 -44 -166 -47 -271 -9 -347 29 -56 33 -101 20
-187 -10 -62 -11 -100 -1 -184 12 -106 12 -106 -15 -157 -23 -45 -26 -61 -25
-145 0 -75 5 -104 21 -135 22 -44 91 -100 122 -100 56 0 129 147 149 297 11
79 10 106 -5 203 -15 93 -16 118 -6 155 15 52 9 82 -27 136 l-26 39 18 58 c13
44 19 106 22 267 5 199 7 212 29 251 32 54 30 70 -12 134 -35 54 -35 56 -30
135 2 44 10 114 16 155 9 52 10 130 5 250 -8 192 -8 212 -1 445 3 110 9 174
20 204 20 55 20 123 1 161 -28 55 -29 112 -4 192 23 69 24 84 21 286 -2 130 1
247 8 301 18 126 11 149 -67 231 -36 39 -73 70 -82 70 -10 0 -27 -9 -38 -19z"/>
<path d="M6608 5213 c-9 -10 -37 -61 -63 -113 -57 -114 -123 -210 -170 -246
-20 -15 -38 -38 -42 -53 -12 -50 -34 -80 -77 -106 -24 -14 -56 -45 -71 -68
-15 -23 -77 -91 -139 -152 -61 -60 -125 -130 -142 -155 -17 -25 -104 -112
-195 -194 -237 -216 -509 -490 -509 -515 0 -13 22 -37 63 -67 34 -26 79 -63
100 -81 54 -48 84 -45 151 16 30 27 89 73 133 102 118 78 159 115 214 187 31
42 78 86 127 121 67 47 276 235 395 355 22 21 47 59 58 83 12 28 50 74 109
130 159 152 241 267 377 522 49 93 9 191 -79 191 -13 0 -61 14 -108 30 -99 35
-112 36 -132 13z"/>
<path d="M7191 4251 c-7 -5 -41 -48 -75 -97 -50 -72 -75 -98 -132 -136 -64
-42 -75 -54 -113 -127 -24 -47 -74 -117 -119 -169 -43 -48 -116 -137 -162
-197 -46 -61 -153 -180 -239 -265 -163 -163 -257 -234 -401 -304 -51 -26 -96
-58 -143 -104 -88 -87 -124 -145 -141 -225 -8 -36 -28 -102 -45 -146 -34 -89
-39 -141 -15 -165 19 -20 23 -20 119 -1 77 14 136 43 247 116 91 62 372 325
512 478 70 78 146 154 167 168 22 14 63 58 91 97 113 157 247 300 327 351 22
14 76 71 121 130 45 57 112 132 150 166 44 39 73 74 81 96 25 78 -25 206 -116
292 -53 50 -83 61 -114 42z"/>
<path d="M7692 3453 c-7 -3 -47 -50 -89 -106 -42 -56 -118 -146 -169 -200 -64
-69 -108 -128 -145 -194 -29 -53 -62 -108 -74 -122 -12 -14 -40 -64 -62 -111
-47 -100 -99 -162 -177 -210 -45 -28 -73 -57 -135 -145 -85 -120 -183 -223
-246 -261 -22 -13 -132 -121 -245 -240 -113 -120 -236 -244 -275 -277 -38 -32
-78 -71 -87 -85 -44 -67 -5 -205 73 -261 62 -45 84 -41 181 33 46 34 115 83
154 108 68 44 125 103 232 239 35 45 66 74 96 87 31 15 65 47 115 108 39 48
133 154 208 236 76 82 143 163 150 179 6 16 71 91 144 166 72 76 152 167 177
203 25 36 62 83 82 106 49 54 138 187 242 364 50 83 106 164 132 190 25 24 46
52 46 62 0 42 -185 138 -265 137 -27 0 -56 -3 -63 -6z"/>
</g>
</svg>
