<?xml version="1.0" encoding="UTF-8"?>
<!DOCTYPE svg PUBLIC "-//W3C//DTD SVG 1.1//EN" "http://www.w3.org/Graphics/SVG/1.1/DTD/svg11.dtd">
<svg xmlns="http://www.w3.org/2000/svg" version="1.1" width="394px" height="394px" style="shape-rendering:geometricPrecision; text-rendering:geometricPrecision; image-rendering:optimizeQuality; fill-rule:evenodd; clip-rule:evenodd" xmlns:xlink="http://www.w3.org/1999/xlink">
<g><path style="opacity:1" fill="#f33745" d="M 179.5,1.5 C 262.785,-1.45341 325.618,32.5466 368,103.5C 399.855,166.833 399.188,229.833 366,292.5C 330.22,352.193 277.387,385.026 207.5,391C 125.818,392.554 64.318,358.387 23,288.5C -1.67182,240.056 -6.33849,189.723 9,137.5C 31.4223,72.7443 75.2556,29.911 140.5,9C 153.477,5.6186 166.477,3.1186 179.5,1.5 Z"/></g>
<g><path style="opacity:1" fill="#fffafa" d="M 193.5,94.5 C 196.652,93.9586 199.152,94.9586 201,97.5C 201.667,106.833 201.667,116.167 201,125.5C 197.492,129.436 194.159,129.436 191,125.5C 190.333,116.167 190.333,106.833 191,97.5C 192.045,96.6266 192.878,95.6266 193.5,94.5 Z"/></g>
<g><path style="opacity:1" fill="#fff9f9" d="M 125.5,122.5 C 127.655,122.372 129.655,122.872 131.5,124C 136.634,130.135 142.134,135.969 148,141.5C 148.872,149.303 145.705,151.803 138.5,149C 133,142.833 127.5,136.667 122,130.5C 121.52,127.137 122.687,124.47 125.5,122.5 Z"/></g>
<g><path style="opacity:1" fill="#fff9fa" d="M 262.5,122.5 C 267.813,122.644 269.979,125.31 269,130.5C 263.5,136.667 258,142.833 252.5,149C 244.719,151.558 241.552,148.725 243,140.5C 249.696,134.634 256.196,128.634 262.5,122.5 Z"/></g>
<g><path style="opacity:1" fill="#fffafa" d="M 188.5,139.5 C 221.286,139.471 242.12,155.138 251,186.5C 253.658,215.826 241.824,236.993 215.5,250C 181.098,259.38 156.598,247.88 142,215.5C 133.423,181.82 144.923,157.653 176.5,143C 180.623,141.808 184.623,140.641 188.5,139.5 Z"/></g>
<g><path style="opacity:1" fill="#f43846" d="M 186.5,151.5 C 214.785,149.637 232.618,162.303 240,189.5C 241.43,218.19 228.263,235.69 200.5,242C 181.271,243.136 166.438,235.636 156,219.5C 143.136,186.242 153.303,163.575 186.5,151.5 Z"/></g>
<g><path style="opacity:1" fill="#fff8f8" d="M 96.5,190.5 C 105.506,190.334 114.506,190.5 123.5,191C 128.395,193.823 128.729,197.157 124.5,201C 114.833,201.667 105.167,201.667 95.5,201C 93.8757,199.883 92.8757,198.383 92.5,196.5C 93.4316,194.235 94.7649,192.235 96.5,190.5 Z"/></g>
<g><path style="opacity:1" fill="#fff8f8" d="M 266.5,190.5 C 275.506,190.334 284.506,190.5 293.5,191C 297.925,193.549 298.592,196.882 295.5,201C 285.5,201.667 275.5,201.667 265.5,201C 263.876,199.883 262.876,198.383 262.5,196.5C 263.432,194.235 264.765,192.235 266.5,190.5 Z"/></g>
<g><path style="opacity:1" fill="#fff9f9" d="M 141.5,242.5 C 148.054,243.606 149.887,247.273 147,253.5C 141.949,259.095 136.782,264.595 131.5,270C 124.672,271.824 121.506,269.324 122,262.5C 128.032,255.302 134.532,248.636 141.5,242.5 Z"/></g>
<g><path style="opacity:1" fill="#fff7f8" d="M 245.5,242.5 C 248.226,242.264 250.559,243.097 252.5,245C 257.667,250.167 262.833,255.333 268,260.5C 271.057,268.431 268.557,271.431 260.5,269.5C 254.816,263.982 248.983,258.649 243,253.5C 242.333,250.5 242.333,247.5 243,244.5C 243.995,243.934 244.828,243.267 245.5,242.5 Z"/></g>
<g><path style="opacity:1" fill="#fff9f9" d="M 193.5,264.5 C 196.961,264.146 199.461,265.479 201,268.5C 201.667,277.833 201.667,287.167 201,296.5C 197.492,300.436 194.159,300.436 191,296.5C 190.333,286.833 190.333,277.167 191,267.5C 192.045,266.627 192.878,265.627 193.5,264.5 Z"/></g>
</svg>
